<?xml version="1.0" encoding="iso-8859-1"?>
<!-- Generator: Adobe Illustrator 15.0.0, SVG Export Plug-In . SVG Version: 6.00 Build 0)  -->
<!DOCTYPE svg PUBLIC "-//W3C//DTD SVG 1.1//EN" "http://www.w3.org/Graphics/SVG/1.1/DTD/svg11.dtd">
<svg version="1.1" id="Layer_1" xmlns="http://www.w3.org/2000/svg" xmlns:xlink="http://www.w3.org/1999/xlink" x="0px" y="0px"
	 width="16px" height="16px" viewBox="0 0 16 16" style="enable-background:new 0 0 16 16;" xml:space="preserve">
<g>
	<path d="M2.574,5.163V3.361l2.181-3.113H3.112L0,3.361V5.21c0,0,0.398,0.89,1.264,0.89S2.574,5.163,2.574,5.163z"/>
	<path d="M3.389,5.21c0,0,0.398,0.89,1.264,0.89c0.866,0,1.311-0.937,1.311-0.937V3.36l0.904-3.112H5.401L3.389,3.361V5.21z"/>
	<path d="M6.686,5.21c0,0,0.398,0.89,1.264,0.89s1.31-0.937,1.31-0.937V3.36L8.683,0.248H7.395L6.686,3.361V5.21z"/>
	<path d="M10.032,5.21c0,0,0.398,0.89,1.264,0.89c0.866,0,1.312-0.937,1.312-0.937V3.361l-1.866-3.113H9.276l0.756,3.113V5.21z"/>
	<path d="M12.848,0.248h-1.465l2.043,3.113V5.21c0,0,0.398,0.89,1.264,0.89C15.556,6.1,16,5.163,16,5.163V3.361L12.848,0.248z"/>
	<path d="M14.476,6.756H1.397c-0.234,0-0.423,0.19-0.423,0.424v8.396c0,0.234,0.19,0.424,0.423,0.424h13.078
		c0.233,0,0.423-0.189,0.423-0.424V7.18C14.898,6.946,14.709,6.756,14.476,6.756z M13.63,13.509c0,0.097-0.078,0.175-0.175,0.175
		H2.459c-0.096,0-0.174-0.078-0.174-0.175V8.161c0-0.096,0.078-0.174,0.174-0.174h10.996c0.097,0,0.175,0.078,0.175,0.174V13.509z"
		/>
</g>
</svg>
