<?xml version="1.0" encoding="iso-8859-1"?>
<!-- Generator: Adobe Illustrator 15.0.0, SVG Export Plug-In . SVG Version: 6.00 Build 0)  -->
<!DOCTYPE svg PUBLIC "-//W3C//DTD SVG 1.1//EN" "http://www.w3.org/Graphics/SVG/1.1/DTD/svg11.dtd">
<svg version="1.1" id="Layer_1" xmlns="http://www.w3.org/2000/svg" xmlns:xlink="http://www.w3.org/1999/xlink" x="0px" y="0px"
	 width="16px" height="16px" viewBox="0 0 16 16" style="enable-background:new 0 0 16 16;" xml:space="preserve">
<path d="M15.821,12.641c-0.03-0.022-0.06-0.045-0.089-0.066c-0.038-0.023-0.075-0.046-0.119-0.067
	c-0.09-0.053-0.194-0.112-0.313-0.156c-0.238-0.112-0.552-0.209-0.924-0.269s-0.804-0.066-1.266-0.008
	c-0.231,0.03-0.47,0.09-0.716,0.164c-0.06,0.022-0.119,0.045-0.186,0.067c-0.06,0.03-0.119,0.06-0.188,0.089
	c-0.059,0.03-0.119,0.074-0.178,0.104c-0.06,0.037-0.119,0.09-0.179,0.142c-0.201,0.193-0.351,0.395-0.507,0.596
	s-0.313,0.402-0.484,0.573c-0.082,0.082-0.171,0.157-0.238,0.187c-0.008-0.015-0.021-0.037-0.037-0.06
	c-0.008-0.015-0.022-0.045-0.029-0.066l-0.045-0.09c-0.06-0.142-0.142-0.283-0.224-0.409c-0.172-0.262-0.388-0.5-0.641-0.708
	c-0.134-0.104-0.275-0.201-0.439-0.283s-0.35-0.149-0.581-0.172c-0.119-0.007-0.246-0.007-0.38,0.03
	c-0.134,0.037-0.269,0.104-0.373,0.201c-0.052,0.045-0.096,0.097-0.134,0.142l-0.067,0.082l-0.133,0.164
	c-0.172,0.216-0.343,0.424-0.515,0.588c-0.022,0.022-0.044,0.045-0.067,0.06c-0.007-0.007-0.007-0.015-0.015-0.021l-0.03-0.03
	c-0.037-0.037-0.074-0.075-0.112-0.111l-0.06-0.053c-0.022-0.015-0.037-0.029-0.06-0.044l-0.119-0.082
	c-0.082-0.053-0.171-0.098-0.253-0.142c-0.357-0.157-0.738-0.194-1.051-0.179c-0.32,0.015-0.61,0.066-0.878,0.134
	c-0.529,0.127-0.984,0.29-1.393,0.432c-0.41,0.142-0.782,0.254-1.11,0.32c-0.328,0.075-0.619,0.097-0.864,0.09
	c-0.059,0-0.119-0.008-0.171-0.015l3.114-1.565c0.186,0,0.343-0.156,0.343-0.342l-0.015-0.015l7.725-7.71l-0.343-0.343l0.715-0.723
	c0.148-0.148,0.148-0.395,0-0.544l-0.812-0.818c-0.149-0.149-0.395-0.149-0.544,0l-0.715,0.723L9.729,2.041l-0.306-0.32L9.072,1.356
	L4.573,5.87L4.73,6.034l0.804-0.418l3.568-3.575l0.29,0.306L2.078,9.832l-0.03-0.029c-0.186,0-0.342,0.156-0.342,0.343L0,13.587
	c0,0.037,0.007,0.074,0.015,0.104L0,13.714c0,0,0.015,0.015,0.045,0.036c0.044,0.09,0.134,0.149,0.23,0.172
	c0.112,0.066,0.269,0.156,0.47,0.216c0.268,0.09,0.618,0.149,1.005,0.142c0.387,0,0.827-0.052,1.274-0.134
	c0.447-0.075,0.924-0.187,1.393-0.254c0.469-0.074,0.939-0.089,1.229,0.038c0.038,0.022,0.075,0.029,0.104,0.052
	c0.03,0.022,0.075,0.045,0.09,0.067c0.007,0.007,0.022,0.021,0.037,0.029l0.008,0.008c0,0,0.007,0.015,0.015,0.015l0.037,0.037
	l0.067,0.074l0.038,0.045l0.037,0.045l0.045,0.045l0.052,0.044c0.022,0.016,0.045,0.03,0.06,0.045
	c0.037,0.03,0.09,0.053,0.142,0.075c0.104,0.044,0.231,0.06,0.336,0.052c0.215-0.015,0.357-0.09,0.461-0.148
	c0.208-0.127,0.32-0.254,0.432-0.38c0.216-0.246,0.372-0.492,0.529-0.73l0.111-0.179l0.06-0.09c0.007-0.015,0.007-0.015,0.007-0.015
	c0-0.008,0-0.008,0.008-0.008c0.007-0.007,0.029-0.007,0.06-0.007c0.067,0,0.164,0.021,0.268,0.067
	c0.098,0.044,0.202,0.104,0.306,0.171c0.193,0.142,0.373,0.313,0.521,0.514c0.074,0.098,0.134,0.194,0.194,0.298l0.044,0.09
	c0.022,0.037,0.037,0.074,0.066,0.119c0.031,0.037,0.053,0.074,0.09,0.119c0.03,0.037,0.074,0.082,0.119,0.119
	c0.053,0.037,0.112,0.082,0.194,0.104c0.037,0.015,0.074,0.021,0.119,0.029s0.082,0.008,0.126,0.008
	c0.164-0.008,0.283-0.067,0.365-0.119c0.172-0.111,0.275-0.224,0.373-0.335c0.186-0.224,0.335-0.447,0.477-0.655
	c0.142-0.209,0.275-0.418,0.409-0.582c0.119-0.134,0.321-0.253,0.521-0.335c0.201-0.082,0.409-0.156,0.618-0.193
	c0.41-0.089,0.813-0.112,1.154-0.089c0.09,0,0.172,0.015,0.254,0.029s0.156,0.022,0.23,0.037s0.143,0.03,0.217,0.045
	c0.066,0.015,0.127,0.037,0.186,0.06c0.119,0.037,0.224,0.082,0.306,0.119c0.045,0.022,0.089,0.037,0.127,0.052
	c0.037,0.022,0.067,0.037,0.097,0.06c0.119,0.067,0.179,0.104,0.179,0.104L16,12.76C15.992,12.76,15.933,12.715,15.821,12.641z"/>
</svg>
