<svg xmlns="http://www.w3.org/2000/svg" viewBox="0 0 16 16" enable-background="new 0 0 16 16"><g fill="#010101"><path d="m15.169 1.584h-1.157v1.828c0 .785-.642 1.428-1.428 1.428s-1.43-.643-1.43-1.428v-1.828h-6.309v1.828c0 .785-.643 1.428-1.429 1.428-.785 0-1.428-.643-1.428-1.428v-1.828h-1.156c-.458 0-.832.373-.832.83v12.818c0 .457.374.83.832.83h.238 14.1c.457 0 .831-.373.831-.83v-12.58-.238c0-.457-.374-.83-.831-.83m-1.616 13.416h-11.11c-.457 0-.831-.373-.831-.83v-7.85c0-.457.374-.832.831-.832h11.11c.457 0 .83.375.83.832v7.85c0 .457-.371.83-.83.83"/><path d="m3.416 3.934c.39 0 .707-.315.707-.705v-2.586c0-.389-.317-.705-.707-.705-.388 0-.705.316-.705.705v2.586c0 .388.317.705.705.705"/><path d="m12.584 3.934c.389 0 .705-.315.705-.705v-2.586c0-.389-.316-.705-.705-.705s-.706.316-.706.705v2.586c0 .388.317.705.706.705"/><path d="m5.313 6.844h-1.527c-.253 0-.458.205-.458.457v1.156c0 .254.205.459.458.459h1.527c.253 0 .459-.205.459-.459v-1.156c0-.252-.206-.457-.459-.457"/><path d="m8.766 6.844h-1.53c-.253 0-.459.205-.459.457v1.156c0 .254.205.459.459.459h1.528c.252 0 .459-.205.459-.459v-1.156c0-.252-.205-.457-.457-.457"/><path d="m12.214 6.844h-1.526c-.254 0-.459.205-.459.457v1.156c0 .254.205.459.459.459h1.526c.254 0 .458-.205.458-.459v-1.156c0-.252-.204-.457-.458-.457"/><path d="m5.313 9.496h-1.527c-.253 0-.458.205-.458.459v1.154c0 .254.205.459.458.459h1.527c.253 0 .459-.205.459-.459v-1.154c0-.254-.206-.459-.459-.459"/><path d="m8.766 9.496h-1.53c-.253 0-.459.205-.459.459v1.154c0 .254.205.459.459.459h1.528c.252 0 .459-.205.459-.459v-1.154c0-.254-.205-.459-.457-.459"/><path d="m12.214 9.496h-1.526c-.254 0-.459.205-.459.459v1.154c0 .254.205.459.459.459h1.526c.254 0 .458-.205.458-.459v-1.154c0-.254-.204-.459-.458-.459"/><path d="m5.313 12.148h-1.527c-.253 0-.458.205-.458.459v1.154c0 .254.205.459.458.459h1.527c.253 0 .459-.205.459-.459v-1.154c0-.253-.206-.459-.459-.459"/><path d="m8.766 12.148h-1.53c-.253 0-.459.205-.459.459v1.154c0 .254.205.459.459.459h1.528c.252 0 .459-.205.459-.459v-1.154c0-.253-.205-.459-.457-.459"/><path d="m12.214 12.148h-1.526c-.254 0-.459.205-.459.459v1.154c0 .254.205.459.459.459h1.526c.254 0 .458-.205.458-.459v-1.154c0-.253-.204-.459-.458-.459"/></g></svg>