<?xml version="1.0" encoding="iso-8859-1"?>
<!-- Generator: Adobe Illustrator 15.0.0, SVG Export Plug-In . SVG Version: 6.00 Build 0)  -->
<!DOCTYPE svg PUBLIC "-//W3C//DTD SVG 1.1//EN" "http://www.w3.org/Graphics/SVG/1.1/DTD/svg11.dtd">
<svg version="1.1" id="Layer_1" xmlns="http://www.w3.org/2000/svg" xmlns:xlink="http://www.w3.org/1999/xlink" x="0px" y="0px"
	 width="16px" height="16px" viewBox="0 0 16 16" style="enable-background:new 0 0 16 16;" xml:space="preserve">
<path d="M2,0v16h12V0H2z M8,1.913c0.766,0,1.357,0.626,1.357,1.356S8.765,4.626,8,4.626C7.235,4.626,6.643,4,6.643,3.27
	S7.235,1.913,8,1.913z M8,4.835c1.774,0,3.236,1.425,3.236,3.234h-6.47C4.765,6.261,6.226,4.835,8,4.835z M12.486,13.844H3.513
	c-0.208,0-0.347-0.139-0.347-0.348s0.139-0.349,0.347-0.349h8.974c0.209,0,0.349,0.14,0.349,0.349S12.66,13.844,12.486,13.844z
	 M12.486,11.166H3.513c-0.208,0-0.347-0.14-0.347-0.349c0-0.208,0.139-0.348,0.347-0.348h8.974c0.209,0,0.349,0.14,0.349,0.348
	C12.835,11.026,12.66,11.166,12.486,11.166z"/>
</svg>
