<?xml version="1.0" encoding="utf-8"?>
<!-- Generator: Adobe Illustrator 15.0.0, SVG Export Plug-In . SVG Version: 6.00 Build 0)  -->
<!DOCTYPE svg PUBLIC "-//W3C//DTD SVG 1.1//EN" "http://www.w3.org/Graphics/SVG/1.1/DTD/svg11.dtd">
<svg version="1.1" id="Layer_1" xmlns="http://www.w3.org/2000/svg" xmlns:xlink="http://www.w3.org/1999/xlink" x="0px" y="0px"
	 width="16px" height="16px" viewBox="0 0 16 16" enable-background="new 0 0 16 16" xml:space="preserve">
<g>
	<path fill="#231F20" d="M4.872,0.93c0.115,0,0.208-0.093,0.208-0.208V0.208C5.08,0.093,4.986,0,4.872,0
		C4.756,0,4.664,0.094,4.664,0.208v0.515C4.663,0.837,4.756,0.93,4.872,0.93z"/>
	<path fill="#231F20" d="M12.309,2.558H7.615C7.616,2.549,7.622,2.541,7.622,2.53V2.008c0-0.466-0.38-0.845-0.846-0.845
		c-0.467,0-0.845,0.379-0.845,0.845V2.53c0,0.01,0.004,0.019,0.006,0.028H5.721C5.723,2.549,5.728,2.541,5.728,2.53V2.008
		c0-0.466-0.379-0.845-0.845-0.845S4.038,1.542,4.038,2.008V2.53c0,0.01,0.004,0.019,0.006,0.028H3.689L2.857,3.391v11.903h1.666
		V4.225h6.954v11.069h1.666V3.391L12.309,2.558z M6.341,2.558C6.342,2.549,6.348,2.541,6.348,2.53V2.008
		c0-0.236,0.192-0.429,0.428-0.429c0.237,0,0.428,0.193,0.428,0.429V2.53c0,0.01,0.005,0.019,0.006,0.028H6.341z"/>
	<path fill="#231F20" d="M3.723,1.203c0.081,0.081,0.213,0.081,0.295,0c0.082-0.082,0.082-0.214,0-0.295L3.654,0.544
		c-0.082-0.082-0.213-0.082-0.294,0c-0.082,0.082-0.082,0.213,0,0.295L3.723,1.203z"/>
	<path fill="#231F20" d="M6.022,1.203l0.362-0.364c0.081-0.082,0.081-0.213,0-0.295c-0.082-0.082-0.213-0.082-0.295,0L5.726,0.907
		c-0.081,0.082-0.081,0.213,0,0.295C5.809,1.284,5.94,1.284,6.022,1.203z"/>
	<path fill="#231F20" d="M8.347,7.052C8.83,7.051,9.229,6.655,9.223,6.177C9.219,5.716,8.811,5.31,8.351,5.309
		c-0.478,0-0.885,0.404-0.885,0.875C7.467,6.668,7.858,7.053,8.347,7.052z"/>
	<path fill="#231F20" d="M10.002,14.208C9.734,13.41,9.475,12.611,9.004,11.9c-0.207-0.313-0.377-0.65-0.566-0.976
		c-0.052-0.09-0.089-0.18-0.08-0.289C8.387,10.303,8.421,9.97,8.467,9.64c0.183,0.403,0.361,0.771,0.39,0.824
		c0.139,0.235,0.27,0.481,0.459,0.679c0.145,0.151,0.33,0.188,0.527,0.106c0.197-0.082,0.309-0.25,0.309-0.474
		c0.008-0.088-0.018-0.18-0.072-0.261c-0.307-0.47-0.613-0.939-0.922-1.408C9.137,9.076,8.92,7.89,8.836,7.668
		C8.789,7.472,8.662,7.3,8.479,7.194c-0.313-0.179-0.692-0.122-0.943,0.15C7.108,7.808,6.684,8.275,6.257,8.74
		c-0.065,0.07-0.116,0.15-0.148,0.242C5.93,9.486,5.749,9.99,5.57,10.495c-0.034,0.096-0.064,0.192-0.05,0.298
		c0.03,0.23,0.202,0.405,0.438,0.443c0.218,0.035,0.437-0.091,0.527-0.325c0.142-0.368,0.271-0.741,0.405-1.113
		c0.006-0.001,0.012-0.003,0.017-0.005C6.904,9.824,6.901,9.855,6.898,9.887l-0.042,0.425c-0.002,0.017-0.003,0.033-0.005,0.051
		c-0.014,0.134-0.021,0.267-0.018,0.395c-0.02,0.232-0.062,1.707-0.078,1.833c-0.032,0.247,0.008,0.502-0.146,0.736
		c-0.367,0.56-0.712,1.132-1.067,1.699c-0.072,0.116-0.131,0.234-0.124,0.364c0.001,0.252,0.142,0.45,0.372,0.537
		c0.225,0.084,0.483,0.022,0.633-0.186c0.453-0.631,0.895-1.27,1.343-1.905c0.028-0.041,0.075-0.583,0.103-1.077
		c0.09,0.139,0.179,0.278,0.272,0.415c0.1,0.149,0.184,0.304,0.252,0.471c0.263,0.649,0.529,1.299,0.8,1.945
		c0.145,0.347,0.469,0.49,0.793,0.365c0.311-0.12,0.453-0.443,0.342-0.787C10.225,14.846,10.109,14.528,10.002,14.208z"/>
</g>
</svg>
