<?xml version="1.0" encoding="iso-8859-1"?>
<!-- Generator: Adobe Illustrator 15.0.0, SVG Export Plug-In . SVG Version: 6.00 Build 0)  -->
<!DOCTYPE svg PUBLIC "-//W3C//DTD SVG 1.1//EN" "http://www.w3.org/Graphics/SVG/1.1/DTD/svg11.dtd">
<svg version="1.1" id="Layer_1" xmlns="http://www.w3.org/2000/svg" xmlns:xlink="http://www.w3.org/1999/xlink" x="0px" y="0px"
	 width="16px" height="16px" viewBox="0 0 16 16" style="enable-background:new 0 0 16 16;" xml:space="preserve">
<g>
	<polygon points="6,12 6,14 6,16 8,16 10,16 10,14 10,12 8,12 	"/>
	<polygon points="14,0 12,0 12,2 12,4 14,4 16,4 16,2 16,0 	"/>
	<polygon points="0,0 0,2 0,4 2,4 4,4 4,2 4,0 2,0 	"/>
	<polygon points="0,12 0,14 0,16 2,16 4,16 4,14 4,12 2,12 	"/>
	<polygon points="0,6 0,8 0,10 2,10 4,10 4,8 4,6 2,6 	"/>
	<polygon points="6,6 6,8 6,10 8,10 10,10 10,8 10,6 8,6 	"/>
	<polygon points="12,12 12,14 12,16 14,16 16,16 16,14 16,12 14,12 	"/>
	<polygon points="12,6 12,8 12,10 14,10 16,10 16,8 16,6 14,6 	"/>
	<polygon points="6,0 6,2 6,4 8,4 10,4 10,2 10,0 8,0 	"/>
</g>
</svg>
