<?xml version="1.0" encoding="utf-8"?>
<!-- Generator: Adobe Illustrator 22.1.0, SVG Export Plug-In . SVG Version: 6.00 Build 0)  -->
<svg version="1.1" id="Layer_1" xmlns="http://www.w3.org/2000/svg" xmlns:xlink="http://www.w3.org/1999/xlink" x="0px" y="0px"
	 viewBox="0 0 16 16" style="enable-background:new 0 0 16 16;" xml:space="preserve">
<g>
	<path d="M1.2,16h3.6V4.6H1.2V16z M2.3,5.7h1.4v1.4H2.3V5.7z M2.3,8.2h1.4v1.4H2.3V8.2z M2.3,10.7h1.4v1.4H2.3V10.7z M2.3,13.2h1.4
		v1.4H2.3V13.2z"/>
	<path d="M5.2,0v16h3.9v-3.6h1.8V16h3.9V0H5.2z M8,11.4H6.2V9.6H8V11.4z M8,8.5H6.2V6.8H8V8.5z M8,5.7H6.2V3.9H8V5.7z M8,2.8H6.2
		V1.1H8V2.8z M10.8,11.4H9.1V9.6h1.8v1.8H10.8z M10.8,8.5H9.1V6.8h1.8v1.7H10.8z M10.8,5.7H9.1V3.9h1.8v1.8H10.8z M10.8,2.8H9.1V1.1
		h1.8v1.7H10.8z M13.7,11.4h-1.8V9.6h1.8V11.4z M13.7,8.5h-1.8V6.8h1.8V8.5z M13.7,5.7h-1.8V3.9h1.8V5.7z M13.7,2.8h-1.8V1.1h1.8
		V2.8z"/>
</g>
</svg>
