<?xml version="1.0" encoding="utf-8"?>
<!-- Generator: Adobe Illustrator 22.1.0, SVG Export Plug-In . SVG Version: 6.00 Build 0)  -->
<svg version="1.1" id="Layer_1" xmlns="http://www.w3.org/2000/svg" xmlns:xlink="http://www.w3.org/1999/xlink" x="0px" y="0px"
	 viewBox="0 0 16 16" style="enable-background:new 0 0 16 16;" xml:space="preserve">
<g>
	<path d="M4.3,14.5h2.8v-2.9h1.7v2.9h2.8V1.5H4.3L4.3,14.5z M8.5,3.1h1.7v1.7H8.5V3.1z M8.5,5.8h1.7v1.7H8.5V5.8z M8.5,8.5h1.7v1.7
		H8.5V8.5z M5.8,3.1h1.7v1.7H5.8V3.1z M5.8,5.8h1.7v1.7H5.8V5.8z M5.8,8.5h1.7v1.7H5.8V8.5z"/>
	<path d="M12.3,2.7v9.1h1.1v2.6H16V2.7H12.3z M13.1,10.6V9h1.5v1.5H13.1z M13.1,8.1V6.6h1.5v1.5l0,0H13.1z M13.1,5.6V4.1h1.5v1.5
		l0,0H13.1z"/>
	<path d="M0,14.5h2.6v-2.6h1.1V2.7H0V14.5z M1.3,4.1h1.5v1.5H1.3V4.1z M1.3,6.6h1.5v1.5H1.3V6.6z M1.3,9h1.5v1.5H1.3V9z"/>
</g>
</svg>
