<?xml version="1.0" encoding="iso-8859-1"?>
<!-- Generator: Adobe Illustrator 15.0.0, SVG Export Plug-In . SVG Version: 6.00 Build 0)  -->
<!DOCTYPE svg PUBLIC "-//W3C//DTD SVG 1.1//EN" "http://www.w3.org/Graphics/SVG/1.1/DTD/svg11.dtd">
<svg version="1.1" id="Layer_1" xmlns="http://www.w3.org/2000/svg" xmlns:xlink="http://www.w3.org/1999/xlink" x="0px" y="0px"
	 width="16px" height="16px" viewBox="0 0 16 16" style="enable-background:new 0 0 16 16;" xml:space="preserve">
<g>
	<path style="fill:#010101;" d="M8,0C3.589,0,0,3.589,0,8s3.589,8,8,8s8-3.589,8-8S12.411,0,8,0z M8,14.4
		c-3.529,0-6.4-2.871-6.4-6.4S4.471,1.6,8,1.6c3.529,0,6.4,2.871,6.4,6.4S11.529,14.4,8,14.4z"/>
	<path style="fill:#010101;" d="M8.8,7.669V4.45c0-0.442-0.358-0.8-0.8-0.8c-0.442,0-0.8,0.357-0.8,0.8V8
		c0,0.053,0.005,0.105,0.016,0.157C7.22,8.18,7.229,8.2,7.235,8.223C7.243,8.251,7.25,8.279,7.261,8.307
		C7.272,8.332,7.286,8.355,7.3,8.379C7.312,8.4,7.321,8.423,7.335,8.443c0.027,0.04,0.058,0.077,0.091,0.111
		c0.003,0.004,0.005,0.008,0.008,0.011l3.2,3.2c0.313,0.313,0.819,0.313,1.132,0s0.313-0.818,0-1.131L8.8,7.669z"/>
</g>
</svg>
