<?xml version="1.0" encoding="utf-8"?>
<!-- Generator: Adobe Illustrator 22.1.0, SVG Export Plug-In . SVG Version: 6.00 Build 0)  -->
<svg version="1.1" id="Layer_1" xmlns="http://www.w3.org/2000/svg" xmlns:xlink="http://www.w3.org/1999/xlink" x="0px" y="0px"
	 viewBox="0 0 16 16" style="enable-background:new 0 0 16 16;" xml:space="preserve">
<path id="Tracé_3139" d="M14,0H2C0.9,0,0,0.9,0,2v12c0,1.1,0.9,2,2,2h12c1.1,0,2-0.9,2-2V2C16,0.9,15.1,0,14,0z M8,2.9
	c1.2,0,2.2,1,2.2,2.2S9.2,7.3,8,7.3c-1.2,0-2.2-1-2.2-2.2C5.8,3.9,6.8,2.9,8,2.9z M12.9,12.9H3.1v-1.5C3.1,9.8,6.4,9,8,9
	s4.9,0.8,4.9,2.4V12.9z"/>
</svg>
