<?xml version="1.0" encoding="iso-8859-1"?>
<!-- Generator: Adobe Illustrator 15.0.0, SVG Export Plug-In . SVG Version: 6.00 Build 0)  -->
<!DOCTYPE svg PUBLIC "-//W3C//DTD SVG 1.1//EN" "http://www.w3.org/Graphics/SVG/1.1/DTD/svg11.dtd">
<svg version="1.1" id="Layer_1" xmlns="http://www.w3.org/2000/svg" xmlns:xlink="http://www.w3.org/1999/xlink" x="0px" y="0px"
	 width="16px" height="16px" viewBox="0 0 16 16" style="enable-background:new 0 0 16 16;" xml:space="preserve">
<path style="fill:#010101;" d="M14.278,3.695c-0.41-2.432-2.631-4.055-4.957-3.627c-2.325,0.43-4.288,2.299-3.877,4.73
	C5.531,5.323,5.778,6.145,6.067,6.73l-4.225,6.305c-0.155,0.232-0.244,0.65-0.197,0.93l0.271,1.61
	c0.047,0.278,0.304,0.466,0.572,0.417l1.237-0.229c0.268-0.05,0.607-0.283,0.754-0.522L6.15,12.54l0.014-0.019l1.131-0.209
	l1.95-3.166c0.641,0.113,1.56,0.076,2.103-0.023C13.677,8.694,14.687,6.125,14.278,3.695 M12.215,4.942
	c-0.64,0.953-1.292,0.28-2.206-0.389c-0.913-0.667-1.74-1.078-1.103-2.032C9.547,1.564,10.805,1.333,11.719,2
	C12.633,2.669,12.856,3.986,12.215,4.942"/>
</svg>
