<?xml version="1.0" encoding="iso-8859-1"?>
<!-- Generator: Adobe Illustrator 15.0.0, SVG Export Plug-In . SVG Version: 6.00 Build 0)  -->
<!DOCTYPE svg PUBLIC "-//W3C//DTD SVG 1.1//EN" "http://www.w3.org/Graphics/SVG/1.1/DTD/svg11.dtd">
<svg version="1.1" id="Layer_1" xmlns="http://www.w3.org/2000/svg" xmlns:xlink="http://www.w3.org/1999/xlink" x="0px" y="0px"
	 width="16px" height="16px" viewBox="0 0 16 16" style="enable-background:new 0 0 16 16;" xml:space="preserve">
<g>
	<path style="fill:#010101;" d="M13.279,2.945c-0.382-0.369-0.99-0.358-1.359,0.021c-0.369,0.382-0.357,0.99,0.022,1.359
		c1.116,1.079,1.731,2.527,1.731,4.079c0,3.129-2.545,5.674-5.674,5.674s-5.674-2.545-5.674-5.674c0-1.587,0.638-3.057,1.797-4.142
		c0.387-0.364,0.407-0.972,0.045-1.359C3.805,2.519,3.198,2.498,2.81,2.859C1.281,4.291,0.404,6.313,0.404,8.405
		C0.404,12.594,3.812,16,8,16c4.188,0,7.596-3.406,7.596-7.595C15.596,6.329,14.772,4.39,13.279,2.945z"/>
	<path style="fill:#010101;" d="M8,8.219c0.53,0,0.961-0.43,0.961-0.961V0.961C8.961,0.431,8.53,0,8,0
		C7.469,0,7.039,0.431,7.039,0.961v6.297C7.039,7.789,7.469,8.219,8,8.219z"/>
</g>
</svg>
