<?xml version="1.0" encoding="iso-8859-1"?>
<!-- Generator: Adobe Illustrator 15.0.0, SVG Export Plug-In . SVG Version: 6.00 Build 0)  -->
<!DOCTYPE svg PUBLIC "-//W3C//DTD SVG 1.1//EN" "http://www.w3.org/Graphics/SVG/1.1/DTD/svg11.dtd">
<svg version="1.1" id="Layer_1" xmlns="http://www.w3.org/2000/svg" xmlns:xlink="http://www.w3.org/1999/xlink" x="0px" y="0px"
	 width="16px" height="16px" viewBox="0 0 16 16" style="enable-background:new 0 0 16 16;" xml:space="preserve">
<path style="fill:#010101;" d="M15.743,12.129l-4.505-3.885l4.51-4.517C15.841,3.634,16,3.7,16,3.832v8.195
	C16,12.162,15.835,12.229,15.743,12.129z M8.863,10.624c-0.26,0.259-0.609,0.403-0.975,0.403H7.876c-0.372,0-0.729-0.146-0.993-0.41
	L5.547,9.283l-4.582,3.666c-0.092,0.094-0.025,0.252,0.105,0.252h13.915c0.129,0,0.195-0.154,0.108-0.25l-4.587-3.973L8.863,10.624z
	 M7.876,9.992L7.876,9.992c0.1,0,0.192-0.039,0.262-0.108l6.821-6.832c0.094-0.094,0.025-0.253-0.105-0.253H0.875
	c-0.132,0-0.198,0.159-0.104,0.253l6.844,6.832C7.685,9.953,7.777,9.992,7.876,9.992z M0,4.104v7.986
	c0,0.133,0.161,0.197,0.254,0.104l4.56-3.642L0.253,3.999C0.159,3.906,0,3.972,0,4.104z"/>
</svg>
