<?xml version="1.0" encoding="iso-8859-1"?>
<!-- Generator: Adobe Illustrator 15.0.0, SVG Export Plug-In . SVG Version: 6.00 Build 0)  -->
<!DOCTYPE svg PUBLIC "-//W3C//DTD SVG 1.1//EN" "http://www.w3.org/Graphics/SVG/1.1/DTD/svg11.dtd">
<svg version="1.1" id="Layer_1" xmlns="http://www.w3.org/2000/svg" xmlns:xlink="http://www.w3.org/1999/xlink" x="0px" y="0px"
	 width="16px" height="16px" viewBox="0 0 16 16" style="enable-background:new 0 0 16 16;" xml:space="preserve">
<path d="M16,14.655l-4.76-4.76c1.786-2.436,1.583-5.847-0.624-8.051c-2.436-2.437-6.391-2.437-8.789,0
	c-2.437,2.437-2.437,6.353,0,8.79c2.217,2.217,5.653,2.41,8.09,0.595l4.755,4.756L16,14.655z M3.146,9.354
	c-1.678-1.677-1.678-4.434,0-6.112c1.678-1.678,4.435-1.678,6.113,0c1.679,1.678,1.679,4.435,0,6.112
	C7.581,11.033,4.824,11.033,3.146,9.354z"/>
</svg>
