<?xml version="1.0" encoding="iso-8859-1"?>
<!-- Generator: Adobe Illustrator 15.0.0, SVG Export Plug-In . SVG Version: 6.00 Build 0)  -->
<!DOCTYPE svg PUBLIC "-//W3C//DTD SVG 1.1//EN" "http://www.w3.org/Graphics/SVG/1.1/DTD/svg11.dtd">
<svg version="1.1" id="Layer_1" xmlns="http://www.w3.org/2000/svg" xmlns:xlink="http://www.w3.org/1999/xlink" x="0px" y="0px"
	 width="16px" height="16px" viewBox="0 0 16 16" style="enable-background:new 0 0 16 16;" xml:space="preserve">
<g>
	<polygon style="fill:#010101;" points="9.808,5.923 9.578,6.92 9.349,7.916 10.346,7.687 11.342,7.456 10.575,6.69 	"/>
	
		<rect x="11.408" y="2.599" transform="matrix(-0.707 -0.7072 0.7072 -0.707 17.9555 16.963)" style="fill:#010101;" width="2.167" height="4.327"/>
	<path style="fill:#010101;" d="M15.905,2.378l-1.021-1.021c-0.138-0.142-0.395-0.115-0.563,0.054
		c-0.014,0.012-0.657,0.659-0.657,0.659l1.535,1.532l0.654-0.658C16.026,2.772,16.049,2.519,15.905,2.378z"/>
	<rect y="13.601" style="fill:#010101;" width="10.074" height="1.119"/>
	<path style="fill:#010101;" d="M3.796,1.288L0,12.481h2.323l0.737-2.301h3.919l0.686,2.301h2.41L6.308,1.288H3.796z M3.659,8.251
		L5.03,3.847l1.327,4.404H3.659z"/>
</g>
</svg>
