<?xml version="1.0" encoding="iso-8859-1"?>
<!-- Generator: Adobe Illustrator 21.0.2, SVG Export Plug-In . SVG Version: 6.00 Build 0)  -->
<svg version="1.1" id="Layer_1" xmlns="http://www.w3.org/2000/svg" xmlns:xlink="http://www.w3.org/1999/xlink" x="0px" y="0px"
	 viewBox="0 0 16 16" style="enable-background:new 0 0 16 16;" xml:space="preserve">
<path d="M15,15.4c0-0.4-0.2-1.8-1.8-2.6c-1.8-0.8-3.2-1.4-3.4-1.9V9.3c0.9-0.3,1.8-0.8,2.8-1.7c0,0-0.9-1.9-0.9-4
	c0-0.3,0-0.6-0.1-0.8C11.3,1.2,9.8,0,8.1,0S5,1.1,4.6,2.7C4.5,3,4.4,3.3,4.4,3.6c0,2.1-0.9,4-0.9,4c0.7,0.6,1.4,1.1,2,1.4
	C5.8,9.1,6,9.2,6.2,9.3v1.6C6,11.5,4.6,12,2.8,12.8c-1.4,0.7-1.7,1.9-1.8,2.4l0,0l0,0c0,0.1,0,0.1,0,0.1l0,0v0.1l0,0V16h14V15.4
	C15,15.5,15,15.5,15,15.4L15,15.4L15,15.4z"/>
</svg>
