<?xml version="1.0" encoding="iso-8859-1"?>
<!-- Generator: Adobe Illustrator 15.0.0, SVG Export Plug-In . SVG Version: 6.00 Build 0)  -->
<!DOCTYPE svg PUBLIC "-//W3C//DTD SVG 1.1//EN" "http://www.w3.org/Graphics/SVG/1.1/DTD/svg11.dtd">
<svg version="1.1" id="Layer_1" xmlns="http://www.w3.org/2000/svg" xmlns:xlink="http://www.w3.org/1999/xlink" x="0px" y="0px"
	 width="16px" height="16px" viewBox="0 0 16 16" style="enable-background:new 0 0 16 16;" xml:space="preserve">
<path d="M12.528,12.125c-2.099-0.764-2.77-1.41-2.77-2.791c0-0.828,0.642-0.559,0.923-2.076c0.115-0.629,0.682-0.01,0.79-1.447
	c0-0.572-0.308-0.715-0.308-0.715s0.156-0.85,0.218-1.502C11.457,2.781,10.913,0.68,8,0.68c-2.911,0-3.458,2.102-3.382,2.914
	C4.68,4.246,4.837,5.096,4.837,5.096S4.528,5.238,4.528,5.811c0.107,1.438,0.674,0.818,0.79,1.447C5.6,8.775,6.24,8.506,6.24,9.334
	c0,1.381-0.67,2.027-2.768,2.791C1.368,12.893,0,13.674,0,14.207V16h8h8v-1.793C16,13.674,14.633,12.893,12.528,12.125z"/>
</svg>
